<?xml version="1.0" encoding="utf-8"?>
<!-- Generator: Adobe Illustrator 16.0.3, SVG Export Plug-In . SVG Version: 6.00 Build 0)  -->
<!DOCTYPE svg PUBLIC "-//W3C//DTD SVG 1.1//EN" "http://www.w3.org/Graphics/SVG/1.1/DTD/svg11.dtd">
<svg version="1.1" id="Layer_1_copy" xmlns:sketch="http://www.bohemiancoding.com/sketch/ns"
	 xmlns="http://www.w3.org/2000/svg" xmlns:xlink="http://www.w3.org/1999/xlink" x="0px" y="0px" width="800px" height="250px"
	 viewBox="-28.5 -19.5 800 250" enable-background="new -28.5 -19.5 800 250" xml:space="preserve">
<title>logo</title>
<description>Created with Sketch (http://www.bohemiancoding.com/sketch)</description>
<g>
	<g>
		<path fill="#FF4E3E" d="M355.5,215.5h-29v-85.719c-3.542,2.087-7.351,3.928-11.401,5.507c0.351,3.184,0.395,5.192,0.399,5.476
			l0.002,0.197c0,0.793-0.104,18.719-9.199,36.609c-8.795,17.304-27.438,37.93-66.301,37.93c-22.194,0-40.125-6.79-53.295-20.182
			c-20.957-21.308-21.24-51.126-21.204-54.456c0.013-1.901,0.375-19.251,8.987-36.761C183.149,86.491,201.545,65.5,240,65.5
			c38.346,0,57.017,20.899,65.927,38.431c0.558,1.099,1.1,2.231,1.622,3.389c9.761-4.671,18.952-13.495,18.952-26.167V-4.5h29V215.5
			z M335.5,206.5h11V4.5h-11v76.654c0,15.917-11.046,29.82-28.828,36.285l-4.142,1.506l-1.592-4.109
			c-0.923-2.384-1.944-4.681-3.035-6.826C290.135,92.722,273.783,74.5,240,74.5c-33.824,0-49.903,18.257-57.436,33.573
			c-7.86,15.982-8.06,32.188-8.064,32.869c-0.013,1.194-0.102,29.029,18.621,48.065C204.537,200.615,220.309,206.5,240,206.5
			c34.299,0,50.624-17.95,58.278-33.008c8.128-15.99,8.222-31.826,8.222-32.492l-0.001-0.125c-0.001-0.094-0.058-3.136-0.778-7.903
			l-0.561-3.714l3.554-1.216c7.444-2.547,14.014-6.007,19.528-10.286l7.259-5.632V206.5z M240,195.5
			c-16.562,0-29.655-4.739-38.918-14.085c-15.595-15.736-15.591-39.288-15.583-40.283l0.001-0.171
			c0-0.101,0.079-14.093,6.936-28.034c4.202-8.543,10.129-15.212,17.619-19.82l4.896-3.013l1.749,5.476
			c3.151,9.866,9.713,18.409,18.975,24.703c11.777,8.003,27.563,12.411,44.451,12.411c3.321,0,6.676-0.182,9.972-0.54l4.375-0.476
			l0.573,4.363c0.345,2.633,0.432,4.401,0.45,4.881l0.005,0.134l-0.003,0.135c-0.031,1.444-0.495,14.479-7.025,27.327
			C279.367,186.419,263.059,195.5,240,195.5z M210.317,104.015c-3.975,3.396-7.261,7.71-9.805,12.885
			c-5.781,11.754-6.01,24.021-6.012,24.144l-0.001,0.163c0,0.187,0.126,20.907,12.976,33.873
			c7.51,7.578,18.454,11.421,32.525,11.421c19.396,0,33.004-7.426,40.449-22.07c5.131-10.096,5.917-20.54,6.032-22.946
			c-2.118,0.133-4.243,0.2-6.355,0.2c-18.673,0-36.256-4.96-49.51-13.968C221.479,121.508,214.55,113.394,210.317,104.015z
			 M280.125,121.684c-11.593,0-22.972-2.468-32.041-6.95c-10.716-5.295-17.971-13.196-20.98-22.848l-1.598-5.125l5.325-0.679
			c3.03-0.386,6.115-0.582,9.168-0.582c22.392,0,38.472,9.052,47.794,26.905c0.46,0.881,0.914,1.809,1.35,2.759l2.766,6.021
			l-6.617,0.351C283.415,121.635,281.725,121.684,280.125,121.684z M238.09,94.529c7.119,11.833,23.827,17.537,39.433,18.107
			C269.595,100.443,257.272,94.5,240,94.5C239.365,94.5,238.728,94.51,238.09,94.529z"/>
	</g>
	<g>
		<path fill="#FF4E3E" d="M515.5,215.5h-29v-14.014c-12.374,9.307-27.968,14.014-46.5,14.014c-22.194,0-40.126-6.79-53.295-20.182
			c-20.957-21.308-21.241-51.126-21.204-54.456c0.013-1.901,0.375-19.251,8.987-36.761C383.149,86.491,401.545,65.5,440,65.5
			c18.508,0,34.101,4.877,46.5,14.522V65.5h29V215.5z M495.5,206.5h11v-132h-11v27.149l-7.791-8.353
			C476.076,80.824,460.024,74.5,440,74.5c-33.824,0-49.903,18.257-57.436,33.573c-7.86,15.982-8.06,32.188-8.064,32.869
			c-0.013,1.194-0.102,29.029,18.621,48.065C404.536,200.615,420.309,206.5,440,206.5c20.097,0,36.166-6.095,47.762-18.114
			l7.738-8.022V206.5z M440,195.5c-16.562,0-29.656-4.739-38.918-14.085c-15.655-15.798-15.585-40.052-15.583-40.295l0.001-0.146
			c0-0.113,0.079-14.106,6.936-28.047C401.386,94.728,417.389,85.5,440,85.5c22.393,0,38.473,9.052,47.795,26.905
			c6.931,13.273,7.643,26.985,7.701,28.505l0.005,0.137l-0.003,0.138c-0.033,1.446-0.507,14.499-7.025,27.323
			C479.368,186.419,463.06,195.5,440,195.5z M440,94.5c-19.159,0-32.076,7.327-39.488,22.399
			c-5.781,11.754-6.011,24.021-6.012,24.144l-0.001,0.15c0,0.202,0.121,20.915,12.976,33.886
			c7.51,7.578,18.453,11.421,32.525,11.421c19.396,0,33.005-7.426,40.449-22.07c5.452-10.727,5.999-21.888,6.047-23.312
			c-0.072-1.482-0.827-13.339-6.68-24.547C472.062,101.72,459.038,94.5,440,94.5z"/>
	</g>
	<g>
		<path fill="#FF4E3E" d="M677.5,215.5H673c-38.401,0-56.799-20.673-65.47-38.016c-3.974-7.948-6.173-15.862-7.386-21.984h-42.94
			c2.873,11.289,9.38,19.424,19.779,24.776c11.628,5.985,23.979,6.223,24.103,6.224l4.446,0.062l0.004,4.446l-0.044,24.492H601
			c-0.752,0-18.628-0.103-36.484-9.03C547.173,197.799,526.5,179.401,526.5,141V-4.5h29v131h44.606
			c1.203-6.229,3.396-14.296,7.382-22.399C616.149,86.491,634.545,65.5,673,65.5s56.851,20.991,65.512,38.601
			c8.886,18.068,8.988,36.138,8.988,36.899v14.5H629.959c0.998,3.402,2.258,6.588,3.765,9.517
			c7.44,14.456,20.288,21.483,39.276,21.483h4.5V215.5z M546.506,146.5h61.268l0.591,3.81c0.896,5.769,2.875,14.468,7.216,23.149
			c7.194,14.388,22.174,31.413,52.92,32.932v-11.015c-20.012-1.13-34.391-9.943-42.778-26.24c-2.659-5.167-4.648-10.97-5.91-17.249
			l-1.082-5.387H738.5V141c0-0.675-0.092-16.717-8.064-32.927C722.903,92.757,706.824,74.5,673,74.5s-49.903,18.257-57.436,33.573
			c-4.355,8.854-6.329,17.721-7.219,23.6l-0.579,3.827H546.5V4.5h-11V141c0,33.805,17.968,49.884,33.041,57.419
			c11.055,5.527,22.032,7.274,27.968,7.826l0.02-11.051c-5.293-0.572-14.527-2.213-23.664-6.916
			c-14.479-7.452-23.09-19.772-25.592-36.617L546.506,146.5z M727.272,135.5H618.729l1.039-5.357
			c1.258-6.48,3.263-12.47,5.959-17.801C634.736,94.531,650.641,85.5,673,85.5s38.264,9.031,47.272,26.841
			c2.696,5.332,4.701,11.321,5.96,17.802L727.272,135.5z M629.872,126.5h86.257c-1.019-3.614-2.319-6.995-3.888-10.098
			C704.786,101.665,691.95,94.5,673,94.5s-31.786,7.165-39.241,21.903C632.19,119.505,630.89,122.886,629.872,126.5z"/>
	</g>
	<g>
		<path fill="#FF4E3E" d="M24.5,215.5h-29v-148h29V215.5z M4.5,206.5h11v-130h-11V206.5z"/>
	</g>
	<g>
		<path fill="#FF4E3E" d="M154.5,215.5H90c-30.051,0-54.5-24.448-54.5-54.5s24.449-54.5,54.5-54.5h39.547
			c3.349-0.292,5.953-3.122,5.953-6.5c0-3.033-2.467-5.5-5.5-5.5H85.5v-29H130c19.023,0,34.5,15.477,34.5,34.5
			c0,18.971-14.843,34.557-33.792,35.483L130,135.5H90c-14.061,0-25.5,11.439-25.5,25.5s11.439,25.5,25.5,25.5h64.5V215.5z
			 M90,115.5c-25.089,0-45.5,20.411-45.5,45.5s20.411,45.5,45.5,45.5h55.5v-11H90c-19.023,0-34.5-15.477-34.5-34.5
			s15.477-34.5,34.5-34.5l40.322-0.009C144.444,125.772,155.5,114.146,155.5,100c0-14.061-11.439-25.5-25.5-25.5H94.5v11H130
			c7.995,0,14.5,6.505,14.5,14.5c0,8.142-6.361,14.945-14.481,15.49l-0.301,0.01H90z"/>
	</g>
</g>
</svg>
