<?xml version="1.0" encoding="UTF-8" standalone="no"?>
<svg width="743px" height="211px" viewBox="0 0 743 211" version="1.1" xmlns="http://www.w3.org/2000/svg" xmlns:xlink="http://www.w3.org/1999/xlink" xmlns:sketch="http://www.bohemiancoding.com/sketch/ns">
    <title>logo</title>
    <description>Created with Sketch (http://www.bohemiancoding.com/sketch)</description>
    <defs></defs>
    <g id="Page-1" stroke="none" stroke-width="1" fill="none" fill-rule="evenodd" sketch:type="MSPage">
        <path d="M240,80 C180,80 180,141 180,141 C180,141 179,200.999991 240,201 C301,201.000008 301,141 301,141 C301,141 300,80 240,80 Z" id="Path-1" stroke="#F1C40F" stroke-width="20" sketch:type="MSShapeGroup"></path>
        <path d="M440,80 C380,80 380,141 380,141 C380,141 379,200.999991 440,201 C501,201.000008 501,141 501,141 C501,141 500,80 440,80 Z" id="Path-1" stroke="#F1C40F" stroke-width="20" sketch:type="MSShapeGroup"></path>
        <path d="M220,81.1538462 C219.999996,143.033654 340.999997,142.019231 341,81.1538462 L341,0 L341,211" id="Path-2" stroke="#F1C40F" stroke-width="20" sketch:type="MSShapeGroup"></path>
        <path d="M501,70 L501,211" id="Path-5" stroke="#F1C40F" stroke-width="20" sketch:type="MSShapeGroup"></path>
        <path d="M541,0 C541,0 541.000005,81 541,141 C540.999997,201 601,201 601,201" id="Path-5" stroke="#F1C40F" stroke-width="20" sketch:type="MSShapeGroup"></path>
        <path d="M680,142.5 L541,142.5" id="Path-7" sketch:type="MSShapeGroup"></path>
        <path d="M673,201 C613,201 613,141 613,141 C613,141 613,80.0000091 673,80 C733,79.9999924 733,141 733,141 L541,141" id="Path-7" stroke="#F1C40F" stroke-width="20" sketch:type="MSShapeGroup"></path>
        <path d="M10,211 L10,72" id="Path-9" stroke="#F1C40F" stroke-width="20" sketch:type="MSShapeGroup"></path>
        <path d="" id="Path-12" stroke="#979797" sketch:type="MSShapeGroup"></path>
        <path d="M89.9999997,80 L130,80 C141.045696,80.0000007 150,88.9543061 150,100.000001 C149.999999,111.213334 141.199999,120.453334 129.999999,121.000001 L89.9999978,121 C67.9085922,121.000005 49.9999944,138.90861 49.9999997,161 C50.0000049,183.09139 67.9086093,201.000005 89.9999993,201 L150,201" id="Path-13" stroke="#F1C40F" stroke-width="20" sketch:type="MSShapeGroup"></path>
    </g>
</svg>