<?xml version="1.0" encoding="UTF-8" standalone="no"?>
<svg width="804px" height="213px" viewBox="0 0 804 213" version="1.1" xmlns="http://www.w3.org/2000/svg" xmlns:xlink="http://www.w3.org/1999/xlink" xmlns:sketch="http://www.bohemiancoding.com/sketch/ns">
    <title>logo</title>
    <description>Created with Sketch (http://www.bohemiancoding.com/sketch)</description>
    <defs></defs>
    <g id="Page-1" stroke="none" stroke-width="1" fill="none" fill-rule="evenodd" sketch:type="MSPage">
        <path d="M301,80 C241,80 241,141 241,141 C241,141 240,200.999991 301,201 C362,201.000008 362,141 362,141 C362,141 361,80 301,80 Z" id="Path-1" stroke="#F1C40F" stroke-width="20" sketch:type="MSShapeGroup"></path>
        <path d="M501,80 C441,80 441,141 441,141 C441,141 440,200.999991 501,201 C562,201.000008 562,141 562,141 C562,141 561,80 501,80 Z" id="Path-1" stroke="#F1C40F" stroke-width="20" sketch:type="MSShapeGroup"></path>
        <path d="M281,81.1538462 C280.999996,143.033654 401.999997,142.019231 402,81.1538462 L402,0 L402,211" id="Path-2" stroke="#F1C40F" stroke-width="20" sketch:type="MSShapeGroup"></path>
        <path d="M562,70 L562,211" id="Path-5" stroke="#F1C40F" stroke-width="20" sketch:type="MSShapeGroup"></path>
        <path d="M602,0 C602,0 602.000005,81 602,141 C601.999997,201 662,201 662,201" id="Path-5" stroke="#F1C40F" stroke-width="20" sketch:type="MSShapeGroup"></path>
        <path d="M741,142.5 L602,142.5" id="Path-7" sketch:type="MSShapeGroup"></path>
        <path d="M734,201 C674,201 674,141 674,141 C674,141 674,80.0000091 734,80 C794,79.9999924 794,141 794,141 L602,141" id="Path-7" stroke="#F1C40F" stroke-width="20" sketch:type="MSShapeGroup"></path>
        <path d="M141,80 C201,80.0000091 201,141 201,141 L141,141 L81,141 C81.0000043,141 81,201.000005 141,201 C201,200.999996 181,201 181,201" id="Path-8" stroke="#F1C40F" stroke-width="20" sketch:type="MSShapeGroup"></path>
        <path d="M41,211 L41,72" id="Path-9" stroke="#F1C40F" stroke-width="20" sketch:type="MSShapeGroup"></path>
        <path d="M241,141 C241,141 241,201 181,201" id="Path-10" stroke="#F1C40F" stroke-width="20" sketch:type="MSShapeGroup"></path>
    </g>
</svg>